<svg width="109" height="16" viewBox="0 0 109 16" xmlns="http://www.w3.org/2000/svg">
    <g fill="none" fill-rule="evenodd">
        <path d="M0 0h16.148v16H0z"/>
        <path d="m14.715 5.578-3.933-.593-1.759-3.699a.49.49 0 0 0-.89 0L6.377 4.985l-3.933.593a.489.489 0 0 0-.284.15.529.529 0 0 0 .01.727l2.845 2.879-.672 4.065a.523.523 0 0 0 .197.503.48.48 0 0 0 .522.039l3.518-1.92 3.518 1.92c.096.053.207.07.314.051a.512.512 0 0 0 .405-.593l-.673-4.065 2.846-2.879a.52.52 0 0 0 .144-.294.51.51 0 0 0-.418-.583z" stroke="#252B32" stroke-width=".8" fill="#3AEDF6" fill-rule="nonzero"/>
        <path d="M23.213 0h16.148v16H23.213z"/>
        <path d="m37.928 5.578-3.933-.593-1.759-3.699a.49.49 0 0 0-.89 0L29.59 4.985l-3.933.593a.489.489 0 0 0-.284.15.529.529 0 0 0 .01.727l2.845 2.879-.672 4.065a.523.523 0 0 0 .197.503.48.48 0 0 0 .522.039l3.518-1.92 3.518 1.92c.096.053.207.07.314.051a.512.512 0 0 0 .405-.593l-.673-4.065 2.846-2.879a.52.52 0 0 0 .144-.294.51.51 0 0 0-.418-.583z" stroke="#252B32" stroke-width=".8" fill="#3AEDF6" fill-rule="nonzero"/>
        <path d="M46.426 0h16.148v16H46.426z"/>
        <path d="m61.14 5.578-3.932-.593-1.759-3.699a.49.49 0 0 0-.89 0l-1.757 3.699-3.933.593a.489.489 0 0 0-.284.15.529.529 0 0 0 .01.727l2.845 2.879-.672 4.065a.523.523 0 0 0 .197.503.48.48 0 0 0 .522.039l3.518-1.92 3.518 1.92c.096.053.207.07.314.051a.512.512 0 0 0 .405-.593l-.673-4.065 2.846-2.879a.52.52 0 0 0 .144-.294.51.51 0 0 0-.418-.583z" stroke="#252B32" stroke-width=".8" fill="#3AEDF6" fill-rule="nonzero"/>
        <g>
            <path d="M69.639 0h16.148v16H69.639z"/>
            <path d="m84.354 5.578-3.934-.593-1.758-3.699a.49.49 0 0 0-.89 0l-1.757 3.699-3.933.593a.489.489 0 0 0-.284.15.529.529 0 0 0 .01.727l2.845 2.879-.672 4.065a.523.523 0 0 0 .197.503.48.48 0 0 0 .522.039l3.518-1.92 3.518 1.92c.096.053.207.07.314.051a.512.512 0 0 0 .404-.593l-.672-4.065 2.846-2.879a.52.52 0 0 0 .144-.294.51.51 0 0 0-.418-.583z" stroke="#252B32" stroke-width=".8" fill="#3AEDF6" fill-rule="nonzero"/>
        </g>
        <g>
            <path d="M92.852 0H109v16H92.852z"/>
            <path d="m107.567 5.578-3.934-.593-1.758-3.699a.49.49 0 0 0-.89 0l-1.757 3.699-3.934.593a.489.489 0 0 0-.283.15.529.529 0 0 0 .01.727l2.845 2.879-.672 4.065a.523.523 0 0 0 .197.503.48.48 0 0 0 .522.039l3.518-1.92 3.518 1.92c.096.053.207.07.314.051a.512.512 0 0 0 .404-.593l-.672-4.065 2.846-2.879a.52.52 0 0 0 .144-.294.51.51 0 0 0-.418-.583z" stroke="#252B32" stroke-width=".8" fill="#3AEDF6" fill-rule="nonzero"/>
        </g>
    </g>
</svg>
